<svg xmlns="http://www.w3.org/2000/svg" viewBox="0 0 1536 1024" role="img" width="1536" height="1024">
  <title>First World Baseball Classic Championship - 2006 - Japan vs Cuba Pixel Art Banner</title>
  
  <defs>
    
    <pattern id="scanlines" x="0" y="0" width="4" height="4" patternUnits="userSpaceOnUse">
      <rect x="0" y="0" width="4" height="2" fill="rgba(0,0,0,0.15)" />
    </pattern>
    
    <pattern id="pixelgrid" x="0" y="0" width="8" height="8" patternUnits="userSpaceOnUse">
      <rect x="0" y="0" width="8" height="8" fill="none" stroke="rgba(0,0,0,0.05)" stroke-width="0.5" />
    </pattern>
    
    <filter id="crtglow" x="-20%" y="-20%" width="140%" height="140%">
      <feGaussianBlur stdDeviation="3" result="blur" />
      <feMerge>
        <feMergeNode in="blur" />
        <feMergeNode in="SourceGraphic" />
      </feMerge>
    </filter>
    <filter id="glow" x="-30%" y="-30%" width="160%" height="160%">
      <feGaussianBlur stdDeviation="6" result="blur" />
      <feMerge>
        <feMergeNode in="blur" />
        <feMergeNode in="SourceGraphic" />
      </feMerge>
    </filter>
    <linearGradient id="bgGrad" x1="0" y1="0" x2="0" y2="1">
      <stop offset="0%" stop-color="#0a0020" />
      <stop offset="100%" stop-color="#000833" />
    </linearGradient>
    <linearGradient id="scoreboard" x1="0" y1="0" x2="0" y2="1">
      <stop offset="0%" stop-color="#1a0040" />
      <stop offset="100%" stop-color="#0d0030" />
    </linearGradient>
  </defs>

  
  <rect width="1536" height="1024" fill="url(#bgGrad)" />
  
  
  <g fill="#ffffff">
    <rect x="50" y="40" width="4" height="4" />
    <rect x="150" y="90" width="4" height="4" />
    <rect x="280" y="30" width="4" height="4" />
    <rect x="400" y="80" width="4" height="4" />
    <rect x="520" y="50" width="4" height="4" />
    <rect x="650" y="20" width="4" height="4" />
    <rect x="780" y="70" width="4" height="4" />
    <rect x="900" y="35" width="4" height="4" />
    <rect x="1050" y="60" width="4" height="4" />
    <rect x="1200" y="25" width="4" height="4" />
    <rect x="1380" y="80" width="4" height="4" />
    <rect x="1480" y="45" width="4" height="4" />
    <rect x="100" y="150" width="2" height="2" />
    <rect x="350" y="130" width="2" height="2" />
    <rect x="600" y="160" width="2" height="2" />
    <rect x="850" y="140" width="2" height="2" />
    <rect x="1100" y="120" width="2" height="2" />
    <rect x="1350" y="155" width="2" height="2" />
    <rect x="70" y="900" width="2" height="2" />
    <rect x="200" y="950" width="2" height="2" />
    <rect x="500" y="920" width="2" height="2" />
    <rect x="1000" y="960" width="2" height="2" />
    <rect x="1300" y="930" width="2" height="2" />
    <rect x="1470" y="900" width="2" height="2" />
  </g>

  
  
  <rect x="0" y="750" width="1536" height="274" fill="#0a2200" />
  <rect x="0" y="750" width="1536" height="16" fill="#0d2f00" />
  
  
  <g fill="#1a4400">
    
    <rect x="0" y="766" width="1536" height="32" fill="#0f3300" />
    <rect x="0" y="814" width="1536" height="32" fill="#0f3300" />
    <rect x="0" y="862" width="1536" height="32" fill="#0f3300" />
    <rect x="0" y="910" width="1536" height="32" fill="#0f3300" />
    <rect x="0" y="958" width="1536" height="32" fill="#0f3300" />
  </g>

  
  
  <g transform="translate(768, 820)">
    
    
    <rect x="-160" y="0" width="320" height="16" fill="#8B6914" />
    
    <rect x="-160" y="-160" width="16" height="160" fill="#8B6914" />
    
    <rect x="144" y="-160" width="16" height="160" fill="#8B6914" />
    
    
    
    <rect x="-24" y="8" width="48" height="48" fill="#f0f0f0" />
    <rect x="-16" y="56" width="32" height="16" fill="#f0f0f0" />
    
    
    <rect x="128" y="-56" width="40" height="40" fill="#f0f0f0" />
    
    <rect x="-20" y="-180" width="40" height="40" fill="#f0f0f0" />
    
    <rect x="-168" y="-56" width="40" height="40" fill="#f0f0f0" />
    
    
    <rect x="-24" y="-104" width="48" height="32" fill="#8B6914" />
    <rect x="-16" y="-112" width="32" height="16" fill="#8B6914" />
  </g>

  
  
  <g transform="translate(250, 400)" filter="url(#crtglow)">
    
    
    <rect x="0" y="0" width="64" height="16" fill="#cc0000" />
    <rect x="-8" y="16" width="80" height="32" fill="#cc0000" />
    <rect x="-16" y="32" width="16" height="16" fill="#cc0000" />
    
    <rect x="8" y="48" width="48" height="48" fill="#f5c89a" />
    
    <rect x="16" y="56" width="12" height="12" fill="#1a1a1a" />
    <rect x="36" y="56" width="12" height="12" fill="#1a1a1a" />
    
    <rect x="20" y="80" width="24" height="8" fill="#cc4444" />
    
    <rect x="-8" y="96" width="80" height="96" fill="#ffffff" />
    
    <rect x="8" y="112" width="48" height="8" fill="#cc0000" />
    
    <rect x="-32" y="96" width="32" height="16" fill="#ffffff" />
    <rect x="72" y="96" width="32" height="16" fill="#ffffff" />
    
    <rect x="-48" y="112" width="24" height="24" fill="#f5c89a" />
    <rect x="88" y="80" width="24" height="24" fill="#f5c89a" />
    
    <rect x="104" y="32" width="16" height="96" fill="#8B4513" />
    <rect x="96" y="32" width="32" height="16" fill="#c8a064" />
    
    <rect x="-8" y="192" width="32" height="80" fill="#ffffff" />
    <rect x="40" y="192" width="32" height="80" fill="#ffffff" />
    
    <rect x="-8" y="256" width="32" height="16" fill="#cc0000" />
    <rect x="40" y="256" width="32" height="16" fill="#cc0000" />
    
    <rect x="-16" y="272" width="40" height="24" fill="#1a1a1a" />
    <rect x="32" y="272" width="40" height="24" fill="#1a1a1a" />
    
    
    <text x="32" y="340" text-anchor="middle" font-family="monospace" font-size="28" fill="#ff4444" font-weight="bold" letter-spacing="4">JAPAN</text>
  </g>

  
  <g transform="translate(1150, 400)" filter="url(#crtglow)">
    
    
    <rect x="0" y="0" width="64" height="16" fill="#003399" />
    <rect x="-8" y="16" width="80" height="32" fill="#003399" />
    <rect x="64" y="32" width="16" height="16" fill="#003399" />
    
    <rect x="8" y="48" width="48" height="48" fill="#f5c89a" />
    
    <rect x="16" y="56" width="12" height="12" fill="#1a1a1a" />
    <rect x="36" y="56" width="12" height="12" fill="#1a1a1a" />
    
    <rect x="20" y="80" width="24" height="8" fill="#993333" />
    
    <rect x="-8" y="96" width="80" height="96" fill="#ffffff" />
    <rect x="8" y="112" width="48" height="8" fill="#003399" />
    
    <rect x="-32" y="96" width="32" height="16" fill="#ffffff" />
    <rect x="72" y="96" width="32" height="16" fill="#ffffff" />
    
    <rect x="-56" y="80" width="32" height="32" fill="#8B4513" />
    <rect x="-64" y="72" width="16" height="48" fill="#a05520" />
    
    <rect x="-8" y="192" width="32" height="80" fill="#ffffff" />
    <rect x="40" y="192" width="32" height="80" fill="#ffffff" />
    
    <rect x="-8" y="256" width="32" height="16" fill="#003399" />
    <rect x="40" y="256" width="32" height="16" fill="#003399" />
    
    <rect x="-16" y="272" width="40" height="24" fill="#1a1a1a" />
    <rect x="32" y="272" width="40" height="24" fill="#1a1a1a" />
    
    
    <text x="32" y="340" text-anchor="middle" font-family="monospace" font-size="28" fill="#4488ff" font-weight="bold" letter-spacing="4">CUBA</text>
  </g>

  
  <g transform="translate(540, 80)">
    
    <rect x="0" y="0" width="456" height="280" fill="#111111" />
    <rect x="8" y="8" width="440" height="264" fill="#0d0030" />
    <rect x="16" y="16" width="424" height="248" fill="#000820" />
    
    
    <rect x="16" y="16" width="424" height="48" fill="#1a0040" />
    
    
    <text x="228" y="52" text-anchor="middle" font-family="monospace" font-size="28" fill="#ffdd00" font-weight="bold" letter-spacing="6" filter="url(#glow)">★ WBC 2006 ★</text>
    
    
    
    <text x="80" y="110" text-anchor="middle" font-family="monospace" font-size="22" fill="#ff4444" font-weight="bold">JPN</text>
    <text x="376" y="110" text-anchor="middle" font-family="monospace" font-size="22" fill="#4488ff" font-weight="bold">CUB</text>
    
    
    
    <rect x="40" y="120" width="16" height="80" fill="#ff4444" />
    <rect x="40" y="120" width="48" height="16" fill="#ff4444" />
    <rect x="40" y="160" width="48" height="16" fill="#ff4444" />
    <rect x="40" y="184" width="48" height="16" fill="#ff4444" />
    <rect x="72" y="120" width="16" height="80" fill="#ff4444" />
    
    <rect x="104" y="120" width="48" height="16" fill="#ff4444" />
    <rect x="104" y="184" width="48" height="16" fill="#ff4444" />
    <rect x="104" y="120" width="16" height="80" fill="#ff4444" />
    <rect x="136" y="120" width="16" height="80" fill="#ff4444" />
    
    
    <rect x="176" y="156" width="40" height="16" fill="#ffdd00" />
    <text x="196" y="175" text-anchor="middle" font-family="monospace" font-size="16" fill="#ffdd00">VS</text>
    
    
    <rect x="272" y="120" width="48" height="16" fill="#4488ff" />
    <rect x="272" y="160" width="48" height="16" fill="#4488ff" />
    <rect x="272" y="184" width="48" height="16" fill="#4488ff" />
    <rect x="272" y="120" width="16" height="80" fill="#4488ff" />
    <rect x="304" y="160" width="16" height="40" fill="#4488ff" />
    
    
    <rect x="16" y="220" width="424" height="44" fill="#330066" />
    <text x="228" y="250" text-anchor="middle" font-family="monospace" font-size="24" fill="#ffff00" font-weight="bold" letter-spacing="8" filter="url(#glow)">★ FINAL ★</text>
  </g>

  
  <g transform="translate(688, 580)">
    
    <rect x="56" y="0" width="48" height="16" fill="#ffdd00" />
    
    <rect x="40" y="16" width="80" height="16" fill="#ffdd00" />
    <rect x="32" y="32" width="96" height="16" fill="#ffdd00" />
    <rect x="32" y="48" width="96" height="16" fill="#ffcc00" />
    <rect x="40" y="64" width="80" height="16" fill="#ffcc00" />
    <rect x="56" y="80" width="48" height="16" fill="#ffaa00" />
    
    <rect x="8" y="16" width="24" height="48" fill="#ffdd00" />
    <rect x="128" y="16" width="24" height="48" fill="#ffdd00" />
    <rect x="0" y="32" width="16" height="16" fill="#ffdd00" />
    <rect x="144" y="32" width="16" height="16" fill="#ffdd00" />
    
    <rect x="72" y="96" width="16" height="32" fill="#ffaa00" />
    
    <rect x="48" y="128" width="64" height="16" fill="#ffaa00" />
    <rect x="40" y="144" width="80" height="16" fill="#ff9900" />
    
    
    <rect x="72" y="32" width="16" height="32" fill="#fff700" />
    <rect x="56" y="40" width="48" height="16" fill="#fff700" />
    
    
    <rect x="8" y="-8" width="144" height="176" fill="none" stroke="#ffdd00" stroke-width="4" opacity="0.3" />
  </g>

  
  <g transform="translate(1300, 200)">
    <rect x="0" y="0" width="180" height="120" fill="#440000" />
    <rect x="8" y="8" width="164" height="104" fill="#660000" />
    <text x="90" y="45" text-anchor="middle" font-family="monospace" font-size="20" fill="#ffdd00" font-weight="bold">MVP</text>
    <text x="90" y="70" text-anchor="middle" font-family="monospace" font-size="13" fill="#ffffff">MATSUZAKA</text>
    <text x="90" y="90" text-anchor="middle" font-family="monospace" font-size="11" fill="#ffaa00">3-0  REC</text>
    <text x="90" y="108" text-anchor="middle" font-family="monospace" font-size="10" fill="#ff6644">★ ★ ★</text>
  </g>

  
  <g transform="translate(56, 200)">
    <rect x="0" y="0" width="200" height="120" fill="#001144" />
    <rect x="8" y="8" width="184" height="104" fill="#002266" />
    <text x="100" y="38" text-anchor="middle" font-family="monospace" font-size="13" fill="#aaddff">PETCO PARK</text>
    <text x="100" y="58" text-anchor="middle" font-family="monospace" font-size="13" fill="#aaddff">SAN DIEGO</text>
    <text x="100" y="80" text-anchor="middle" font-family="monospace" font-size="11" fill="#ffdd00">MAR 20, 2006</text>
    <text x="100" y="100" text-anchor="middle" font-family="monospace" font-size="10" fill="#88aacc">ATT: 42,696</text>
  </g>

  
  <g transform="translate(720, 520)" filter="url(#crtglow)">
    <rect x="0" y="0" width="32" height="32" fill="#f8f8f8" />
    
    <rect x="8" y="4" width="4" height="24" fill="#cc2222" />
    <rect x="20" y="4" width="4" height="24" fill="#cc2222" />
    <rect x="4" y="8" width="4" height="4" fill="#cc2222" />
    <rect x="24" y="8" width="4" height="4" fill="#cc2222" />
    <rect x="4" y="20" width="4" height="4" fill="#cc2222" />
    <rect x="24" y="20" width="4" height="4" fill="#cc2222" />
  </g>

  
  <rect x="640" y="530" width="72" height="8" fill="#ffffff" opacity="0.2" />
  <rect x="656" y="534" width="56" height="4" fill="#ffffff" opacity="0.15" />

  
  <g filter="url(#glow)">
    <text x="768" y="880" text-anchor="middle" font-family="monospace" font-size="52" fill="#ffdd00" font-weight="bold" letter-spacing="4">WORLD BASEBALL CLASSIC</text>
    <text x="768" y="944" text-anchor="middle" font-family="monospace" font-size="44" fill="#ffffff" font-weight="bold" letter-spacing="6">CHAMPIONSHIP 2006</text>
  </g>
  
  <text x="772" y="884" text-anchor="middle" font-family="monospace" font-size="52" fill="#aa8800" font-weight="bold" letter-spacing="4" opacity="0.5">WORLD BASEBALL CLASSIC</text>

  
  <g fill="#ffdd00">
    
    <rect x="16" y="16" width="16" height="16" />
    <rect x="48" y="16" width="16" height="16" />
    <rect x="16" y="48" width="16" height="16" />
    
    <rect x="1504" y="16" width="16" height="16" />
    <rect x="1472" y="16" width="16" height="16" />
    <rect x="1504" y="48" width="16" height="16" />
    
    <rect x="16" y="992" width="16" height="16" />
    <rect x="48" y="992" width="16" height="16" />
    <rect x="16" y="960" width="16" height="16" />
    
    <rect x="1504" y="992" width="16" height="16" />
    <rect x="1472" y="992" width="16" height="16" />
    <rect x="1504" y="960" width="16" height="16" />
  </g>

  
  <rect x="0" y="0" width="1536" height="16" fill="#220044" />
  <rect x="0" y="1008" width="1536" height="16" fill="#220044" />
  <rect x="0" y="0" width="16" height="1024" fill="#220044" />
  <rect x="1520" y="0" width="16" height="1024" fill="#220044" />
  
  
  <rect x="8" y="8" width="1520" height="8" fill="#440088" />
  <rect x="8" y="1008" width="1520" height="8" fill="#440088" />
  <rect x="8" y="8" width="8" height="1008" fill="#440088" />
  <rect x="1520" y="8" width="8" height="1008" fill="#440088" />

  
  <rect width="1536" height="1024" fill="url(#scanlines)" opacity="0.4" />
  
  
  <defs>
    <radialGradient id="vignette" cx="50%" cy="50%" r="70%">
      <stop offset="60%" stop-color="transparent" />
      <stop offset="100%" stop-color="rgba(0,0,0,0.6)" />
    </radialGradient>
  </defs>
  <rect width="1536" height="1024" fill="url(#vignette)" />
</svg>