<svg xmlns="http://www.w3.org/2000/svg" viewBox="0 0 1536 1024" role="img" width="1536" height="1024">
  <title>The 2006 Sony Laptop Battery Recall – Retro Pixel Art Banner</title>

  <defs>
    <radialGradient id="bgGrad" cx="50%" cy="50%" r="70%">
      <stop offset="0%" stop-color="#1a0a2e" />
      <stop offset="100%" stop-color="#0a0010" />
    </radialGradient>
    <radialGradient id="crtGlow" cx="50%" cy="50%" r="50%">
      <stop offset="0%" stop-color="#ff4400" stop-opacity="0.15" />
      <stop offset="100%" stop-color="#ff4400" stop-opacity="0" />
    </radialGradient>
    <radialGradient id="fireGlow" cx="50%" cy="80%" r="60%">
      <stop offset="0%" stop-color="#ff8800" stop-opacity="0.4" />
      <stop offset="100%" stop-color="#ff0000" stop-opacity="0" />
    </radialGradient>
    
    <pattern id="scanlines" x="0" y="0" width="2" height="4" patternUnits="userSpaceOnUse">
      <rect x="0" y="0" width="2" height="2" fill="black" fill-opacity="0.08" />
    </pattern>
  </defs>

  
  <rect width="1536" height="1024" fill="url(#bgGrad)" />
  <rect width="1536" height="1024" fill="url(#crtGlow)" />

  
  
  <rect x="0" y="0" width="1536" height="8" fill="#2a0a4e" opacity="0.5" />
  <rect x="0" y="1016" width="1536" height="8" fill="#2a0a4e" opacity="0.5" />

  
  <ellipse cx="768" cy="680" rx="500" ry="300" fill="url(#fireGlow)" />

  
  
  <rect x="470" y="260" width="596" height="380" fill="#222244" rx="0" />
  <rect x="462" y="252" width="612" height="388" fill="#333366" rx="0" />
  
  <rect x="486" y="268" width="564" height="356" fill="#000814" />
  
  <rect x="494" y="276" width="548" height="340" fill="#001122" />

  
  
  <rect x="620" y="340" width="240" height="120" fill="#111133" />
  <rect x="616" y="336" width="248" height="128" fill="none" stroke="#00ffcc" stroke-width="8" />
  
  <rect x="864" y="360" width="24" height="80" fill="#00ffcc" />
  
  <rect x="624" y="344" width="60" height="112" fill="#ff2200" />
  
  <rect x="688" y="336" width="8" height="128" fill="#001122" />
  <rect x="760" y="336" width="8" height="128" fill="#001122" />
  <rect x="832" y="336" width="8" height="128" fill="#001122" />

  
  
  <rect x="730" y="490" width="16" height="64" fill="#ffcc00" />
  <rect x="730" y="566" width="16" height="16" fill="#ffcc00" />
  <rect x="758" y="490" width="16" height="64" fill="#ffcc00" />
  <rect x="758" y="566" width="16" height="16" fill="#ffcc00" />

  
  
  <rect x="530" y="490" width="12" height="56" fill="#ff4400" />
  <rect x="542" y="530" width="12" height="16" fill="#ff4400" />
  <rect x="554" y="510" width="12" height="36" fill="#ff4400" />
  <rect x="566" y="530" width="12" height="16" fill="#ff4400" />
  <rect x="578" y="490" width="12" height="56" fill="#ff4400" />

  
  <rect x="440" y="636" width="656" height="40" fill="#444466" />
  <rect x="432" y="628" width="672" height="48" fill="#555588" />
  
  <rect x="460" y="640" width="20" height="16" fill="#333355" />
  <rect x="488" y="640" width="20" height="16" fill="#333355" />
  <rect x="516" y="640" width="20" height="16" fill="#333355" />
  <rect x="544" y="640" width="20" height="16" fill="#333355" />
  <rect x="572" y="640" width="20" height="16" fill="#333355" />
  <rect x="600" y="640" width="20" height="16" fill="#333355" />
  <rect x="628" y="640" width="20" height="16" fill="#333355" />
  <rect x="656" y="640" width="20" height="16" fill="#333355" />
  <rect x="684" y="640" width="20" height="16" fill="#333355" />
  <rect x="712" y="640" width="20" height="16" fill="#333355" />
  <rect x="740" y="640" width="20" height="16" fill="#333355" />
  <rect x="768" y="640" width="20" height="16" fill="#333355" />
  <rect x="796" y="640" width="20" height="16" fill="#333355" />
  <rect x="824" y="640" width="20" height="16" fill="#333355" />
  <rect x="852" y="640" width="20" height="16" fill="#333355" />
  <rect x="880" y="640" width="20" height="16" fill="#333355" />
  <rect x="908" y="640" width="20" height="16" fill="#333355" />
  <rect x="936" y="640" width="20" height="16" fill="#333355" />
  
  <rect x="560" y="660" width="400" height="12" fill="#333355" />

  
  <rect x="420" y="672" width="696" height="28" fill="#333355" />
  
  <rect x="440" y="696" width="40" height="16" fill="#222244" />
  <rect x="1056" y="696" width="40" height="16" fill="#222244" />

  
  
  <rect x="560" y="700" width="32" height="32" fill="#ff2200" />
  <rect x="528" y="668" width="32" height="32" fill="#ff2200" />
  <rect x="560" y="636" width="32" height="32" fill="#ff4400" />
  <rect x="528" y="700" width="32" height="32" fill="#ff2200" />
  <rect x="496" y="700" width="32" height="32" fill="#cc1100" />

  <rect x="640" y="700" width="32" height="32" fill="#ff2200" />
  <rect x="672" y="700" width="32" height="32" fill="#ff4400" />
  <rect x="704" y="668" width="32" height="32" fill="#ff2200" />
  <rect x="672" y="636" width="32" height="32" fill="#ff4400" />

  <rect x="800" y="700" width="32" height="32" fill="#ff2200" />
  <rect x="832" y="668" width="32" height="32" fill="#ff4400" />
  <rect x="800" y="636" width="32" height="32" fill="#ff2200" />
  <rect x="864" y="700" width="32" height="32" fill="#cc1100" />
  <rect x="896" y="700" width="32" height="32" fill="#ff2200" />
  <rect x="928" y="700" width="32" height="32" fill="#cc1100" />
  <rect x="960" y="700" width="32" height="32" fill="#ff2200" />

  
  <rect x="592" y="700" width="32" height="48" fill="#ff6600" />
  <rect x="560" y="668" width="32" height="32" fill="#ff8800" />
  <rect x="592" y="636" width="32" height="32" fill="#ffaa00" />
  <rect x="560" y="604" width="32" height="32" fill="#ff6600" />

  <rect x="736" y="700" width="32" height="48" fill="#ff6600" />
  <rect x="736" y="668" width="32" height="32" fill="#ff8800" />
  <rect x="704" y="636" width="32" height="32" fill="#ffaa00" />
  <rect x="736" y="604" width="32" height="32" fill="#ff6600" />

  <rect x="864" y="668" width="32" height="32" fill="#ff8800" />
  <rect x="832" y="636" width="32" height="32" fill="#ff6600" />
  <rect x="864" y="604" width="32" height="32" fill="#ff8800" />

  
  <rect x="624" y="700" width="32" height="48" fill="#ffcc00" />
  <rect x="624" y="668" width="32" height="32" fill="#ffee00" />
  <rect x="624" y="636" width="32" height="32" fill="#ffcc00" />
  <rect x="624" y="604" width="32" height="32" fill="#ffaa00" />

  <rect x="768" y="700" width="32" height="48" fill="#ffcc00" />
  <rect x="768" y="668" width="32" height="32" fill="#ffee00" />
  <rect x="800" y="668" width="32" height="32" fill="#ffcc00" />
  <rect x="768" y="636" width="32" height="32" fill="#ffaa00" />

  
  <rect x="500" y="620" width="8" height="8" fill="#ffee00" />
  <rect x="540" y="580" width="8" height="8" fill="#ff8800" />
  <rect x="720" y="560" width="8" height="8" fill="#ffee00" />
  <rect x="780" y="540" width="8" height="8" fill="#ff8800" />
  <rect x="960" y="620" width="8" height="8" fill="#ffee00" />
  <rect x="990" y="580" width="8" height="8" fill="#ff8800" />
  <rect x="460" y="560" width="16" height="16" fill="#ff6600" opacity="0.8" />
  <rect x="1020" y="550" width="16" height="16" fill="#ff6600" opacity="0.8" />

  
  
  <rect x="100" y="480" width="160" height="80" fill="#334455" />
  <rect x="92" y="472" width="176" height="96" fill="none" stroke="#00ccff" stroke-width="8" />
  
  <rect x="268" y="496" width="20" height="20" fill="#00ccff" />
  <rect x="268" y="532" width="20" height="20" fill="#00ccff" />
  
  <rect x="108" y="492" width="28" height="56" fill="#ff2200" />
  <rect x="144" y="492" width="28" height="56" fill="#333344" />
  <rect x="180" y="492" width="28" height="56" fill="#333344" />
  <rect x="216" y="492" width="28" height="56" fill="#333344" />
  
  <rect x="100" y="452" width="160" height="20" fill="#223344" />
  
  <rect x="110" y="454" width="16" height="4" fill="#00ccff" />
  <rect x="110" y="458" width="4" height="4" fill="#00ccff" />
  <rect x="110" y="462" width="16" height="4" fill="#00ccff" />
  <rect x="122" y="466" width="4" height="4" fill="#00ccff" />
  <rect x="110" y="470" width="16" height="4" fill="#00ccff" />
  
  <rect x="134" y="454" width="16" height="4" fill="#00ccff" />
  <rect x="134" y="470" width="16" height="4" fill="#00ccff" />
  <rect x="134" y="458" width="4" height="12" fill="#00ccff" />
  <rect x="146" y="458" width="4" height="12" fill="#00ccff" />
  
  <rect x="158" y="454" width="4" height="20" fill="#00ccff" />
  <rect x="162" y="458" width="4" height="4" fill="#00ccff" />
  <rect x="166" y="462" width="4" height="4" fill="#00ccff" />
  <rect x="170" y="454" width="4" height="20" fill="#00ccff" />
  
  <rect x="182" y="454" width="4" height="8" fill="#00ccff" />
  <rect x="194" y="454" width="4" height="8" fill="#00ccff" />
  <rect x="186" y="462" width="8" height="4" fill="#00ccff" />
  <rect x="186" y="466" width="4" height="8" fill="#00ccff" />
  
  <rect x="172" y="576" width="16" height="40" fill="#ffcc00" />
  <rect x="172" y="624" width="16" height="16" fill="#ffcc00" />

  
  
  
  <rect x="1280" y="380" width="160" height="16" fill="#ffcc00" />
  <rect x="1264" y="396" width="192" height="16" fill="#ffcc00" />
  <rect x="1248" y="412" width="224" height="16" fill="#ffcc00" />
  <rect x="1232" y="428" width="256" height="16" fill="#ffcc00" />
  <rect x="1216" y="444" width="288" height="16" fill="#ffcc00" />
  <rect x="1200" y="460" width="320" height="16" fill="#ffcc00" />
  <rect x="1184" y="476" width="352" height="16" fill="#ffcc00" />
  <rect x="1168" y="492" width="384" height="16" fill="#ffcc00" />
  <rect x="1152" y="508" width="416" height="16" fill="#ffcc00" />
  <rect x="1136" y="524" width="448" height="16" fill="#ffcc00" />
  <rect x="1120" y="540" width="480" height="16" fill="#ffcc00" />
  
  <rect x="1296" y="396" width="128" height="16" fill="#1a0a00" />
  <rect x="1280" y="412" width="160" height="16" fill="#1a0a00" />
  <rect x="1264" y="428" width="192" height="16" fill="#1a0a00" />
  <rect x="1248" y="444" width="224" height="16" fill="#1a0a00" />
  <rect x="1232" y="460" width="256" height="16" fill="#1a0a00" />
  <rect x="1216" y="476" width="288" height="16" fill="#1a0a00" />
  <rect x="1200" y="492" width="320" height="16" fill="#1a0a00" />
  <rect x="1184" y="508" width="352" height="16" fill="#1a0a00" />
  <rect x="1168" y="524" width="384" height="16" fill="#1a0a00" />
  
  <rect x="1352" y="436" width="16" height="64" fill="#ffcc00" />
  <rect x="1352" y="510" width="16" height="16" fill="#ffcc00" />

  
  <rect x="1136" y="556" width="448" height="32" fill="#ff2200" />
  
  

  
  
  <text x="1360" y="610" font-family="monospace" font-size="28" fill="#ff4400" text-anchor="middle" letter-spacing="2" font-weight="bold">9.6 MILLION</text>
  <text x="1360" y="644" font-family="monospace" font-size="22" fill="#ffaa00" text-anchor="middle" letter-spacing="2">BATTERIES</text>
  <text x="1360" y="672" font-family="monospace" font-size="18" fill="#ffcc00" text-anchor="middle" letter-spacing="1">RECALLED</text>

  
  
  <rect x="80" y="380" width="16" height="16" fill="#ff8800" opacity="0.7" />
  <rect x="60" y="340" width="8" height="8" fill="#ffcc00" opacity="0.9" />
  <rect x="120" y="310" width="12" height="12" fill="#ff4400" opacity="0.6" />
  <rect x="320" y="280" width="16" height="16" fill="#ffaa00" opacity="0.7" />
  <rect x="350" y="240" width="8" height="8" fill="#ffcc00" opacity="0.9" />

  
  <rect x="1440" y="380" width="16" height="16" fill="#ff8800" opacity="0.7" />
  <rect x="1460" y="340" width="8" height="8" fill="#ffcc00" opacity="0.9" />
  <rect x="1400" y="310" width="12" height="12" fill="#ff4400" opacity="0.6" />
  <rect x="1200" y="280" width="16" height="16" fill="#ffaa00" opacity="0.7" />
  <rect x="1170" y="240" width="8" height="8" fill="#ffcc00" opacity="0.9" />

  
  <rect x="500" y="200" width="12" height="12" fill="#ff6600" opacity="0.8" />
  <rect x="700" y="180" width="16" height="16" fill="#ffcc00" opacity="0.7" />
  <rect x="900" y="190" width="12" height="12" fill="#ff4400" opacity="0.8" />
  <rect x="1100" y="170" width="8" height="8" fill="#ffaa00" opacity="0.9" />

  
  <rect x="80" y="750" width="240" height="60" fill="#1a1a44" rx="0" />
  <rect x="72" y="742" width="256" height="76" fill="none" stroke="#3366ff" stroke-width="6" />
  <text x="200" y="790" font-family="monospace" font-size="28" fill="#3366ff" text-anchor="middle" font-weight="bold" letter-spacing="3">DELL</text>
  <text x="200" y="818" font-family="monospace" font-size="16" fill="#6688ff" text-anchor="middle">4.1M UNITS</text>

  
  <rect x="360" y="750" width="240" height="60" fill="#1a1a44" rx="0" />
  <rect x="352" y="742" width="256" height="76" fill="none" stroke="#aaaaaa" stroke-width="6" />
  <text x="480" y="790" font-family="monospace" font-size="28" fill="#cccccc" text-anchor="middle" font-weight="bold" letter-spacing="2">APPLE</text>

  
  <rect x="640" y="750" width="240" height="60" fill="#1a1a44" rx="0" />
  <rect x="632" y="742" width="256" height="76" fill="none" stroke="#cc2200" stroke-width="6" />
  <text x="760" y="790" font-family="monospace" font-size="22" fill="#ff4422" text-anchor="middle" font-weight="bold" letter-spacing="2">LENOVO</text>

  
  <rect x="920" y="750" width="240" height="60" fill="#1a1a44" rx="0" />
  <rect x="912" y="742" width="256" height="76" fill="none" stroke="#ff0000" stroke-width="6" />
  <text x="1040" y="790" font-family="monospace" font-size="22" fill="#ff3333" text-anchor="middle" font-weight="bold" letter-spacing="1">TOSHIBA</text>

  
  <rect x="80" y="840" width="260" height="80" fill="#220022" />
  <rect x="72" y="832" width="276" height="96" fill="none" stroke="#ff00ff" stroke-width="6" />
  <text x="210" y="870" font-family="monospace" font-size="16" fill="#ff88ff" text-anchor="middle" letter-spacing="1">AUG 14, 2006</text>
  <text x="210" y="894" font-family="monospace" font-size="14" fill="#cc44cc" text-anchor="middle">RECALL BEGINS</text>
  <text x="210" y="914" font-family="monospace" font-size="13" fill="#aa22aa" text-anchor="middle">CPSC HISTORY</text>

  
  
  <text x="772" y="156" font-family="monospace" font-size="68" fill="#ff2200" text-anchor="middle" font-weight="bold" letter-spacing="2" opacity="0.5">THE 2006 SONY LAPTOP</text>
  <text x="772" y="228" font-family="monospace" font-size="68" fill="#ff2200" text-anchor="middle" font-weight="bold" letter-spacing="2" opacity="0.5">BATTERY RECALL</text>
  
  <text x="768" y="152" font-family="monospace" font-size="68" fill="#ffcc00" text-anchor="middle" font-weight="bold" letter-spacing="2">THE 2006 SONY LAPTOP</text>
  <text x="768" y="224" font-family="monospace" font-size="68" fill="#ff8800" text-anchor="middle" font-weight="bold" letter-spacing="2">BATTERY RECALL</text>

  
  <text x="768" y="920" font-family="monospace" font-size="24" fill="#00ffcc" text-anchor="middle" letter-spacing="4" opacity="0.9">▶ LARGEST COMPUTER RECALL IN CPSC HISTORY AT THE TIME ◀</text>

  
  <rect width="1536" height="1024" fill="url(#scanlines)" />

  
  <radialGradient id="vignette" cx="50%" cy="50%" r="70%">
    <stop offset="60%" stop-color="black" stop-opacity="0" />
    <stop offset="100%" stop-color="black" stop-opacity="0.6" />
  </radialGradient>
  <rect width="1536" height="1024" fill="url(#vignette)" />

  
  <rect x="0" y="0" width="1536" height="16" fill="#220011" />
  <rect x="0" y="1008" width="1536" height="16" fill="#220011" />
  <rect x="0" y="0" width="16" height="1024" fill="#220011" />
  <rect x="1520" y="0" width="16" height="1024" fill="#220011" />
  <rect x="16" y="16" width="1504" height="8" fill="#ff2200" opacity="0.6" />
  <rect x="16" y="1000" width="1504" height="8" fill="#ff2200" opacity="0.6" />
  <rect x="16" y="16" width="8" height="992" fill="#ff2200" opacity="0.6" />
  <rect x="1512" y="16" width="8" height="992" fill="#ff2200" opacity="0.6" />
</svg>